<?xml version="1.0" standalone="no"?>
<!DOCTYPE svg PUBLIC "-//W3C//DTD SVG 1.1//EN" "http://www.w3.org/Graphics/SVG/1.1/DTD/svg11.dtd" >
<svg xmlns="http://www.w3.org/2000/svg">
<metadata>Generated by IcoMoon</metadata>
<defs>
<font id="icomoon" horiz-adv-x="1024">
<font-face units-per-em="1024" ascent="960" descent="-64" />
<missing-glyph horiz-adv-x="1024" />
<glyph unicode="&#x20;" horiz-adv-x="512" d="" />
<glyph unicode="&#xe900;" glyph-name="add" d="M42.667 547.556h938.667c23.564 0 42.667-19.103 42.667-42.667v-113.778c0-23.564-19.103-42.667-42.667-42.667h-938.667c-23.564 0-42.667 19.103-42.667 42.667v113.778c0 23.564 19.103 42.667 42.667 42.667zM412.444-21.333v938.667c0 23.564 19.103 42.667 42.667 42.667h113.778c23.564 0 42.667-19.103 42.667-42.667v-938.667c0-23.564-19.103-42.667-42.667-42.667h-113.778c-23.564 0-42.667 19.103-42.667 42.667z" />
<glyph unicode="&#xe901;" glyph-name="agent-set" horiz-adv-x="410" d="M368.56 818.145l-81.9-141.855h-163.8l-81.9 141.855 81.9 141.855h163.8zM204.8-63.549l200.050 212.443-144.465 668.236h-111.17l-144.465-668.236z" />
<glyph unicode="&#xe902;" glyph-name="anchor-management" horiz-adv-x="1253" d="M826.084 687.674c0-150.402-122.211-272.326-272.967-272.326s-272.967 121.925-272.967 272.326c0 150.402 122.211 272.326 272.967 272.326s272.967-121.925 272.967-272.326zM856.608 382.269c-87.13 57.157-191.418 90.411-303.491 90.411-298.262 0-541.385-235.523-552.705-530.319h743.94l4.62 149.594-144.748 186.818 226.912 66.058 25.473 37.438zM1001.739-2.684l-155.269-55.805 5.093 164.914-101.054 130.425 158.416 46.118 92.814 136.411 92.814-136.411 158.416-46.118-101.054-130.425 5.093-164.914z" />
<glyph unicode="&#xe903;" glyph-name="anchor-set" horiz-adv-x="1228" d="M825.905 687.674c0-150.402-122.211-272.326-272.967-272.326s-272.967 121.925-272.967 272.326c0 150.402 122.211 272.326 272.967 272.326s272.967-121.925 272.967-272.326zM801.898 412.081c-75.020 38.009-159.894 59.43-249.779 59.43-298.042 0-540.986-235.523-552.299-530.319h746.327c-50.445 55.835-81.166 129.855-81.166 211.056 0 107.893 54.238 203.11 136.917 259.833zM1217.791 111.323c-2.991 0.36-6.035 0.545-9.123 0.545-41.72 0-75.54-33.821-75.54-75.54 0-17.004 5.618-32.696 15.1-45.321-23.549-21.313-51.598-37.745-82.552-47.702-11.544 26.939-38.301 45.81-69.465 45.81s-57.921-18.872-69.465-45.81c-31.052 9.989-59.181 26.495-82.777 47.907 9.389 12.589 14.947 28.204 14.947 45.117 0 41.72-33.821 75.54-75.54 75.54-2.961 0-5.882-0.17-8.754-0.502-3.297 15.384-5.032 31.346-5.032 47.714 0 16.384 1.739 32.361 5.041 47.758 2.991-0.36 6.035-0.545 9.123-0.545 41.72 0 75.54 33.821 75.54 75.54 0 17.004-5.618 32.696-15.1 45.321 23.549 21.313 51.598 37.745 82.552 47.702 11.544-26.939 38.301-45.81 69.465-45.81s57.921 18.872 69.465 45.81c31.001-9.973 59.090-26.441 82.661-47.802-9.436-12.608-15.025-28.262-15.025-45.221 0-41.72 33.821-75.54 75.54-75.54 3.026 0 6.010 0.178 8.943 0.524 3.3-15.39 5.037-31.361 5.037-47.737 0-16.384-1.739-32.361-5.041-47.758zM996.211 74.881c46.503 0 84.2 37.698 84.2 84.2s-37.698 84.2-84.2 84.2c-46.503 0-84.2-37.698-84.2-84.2s37.698-84.2 84.2-84.2z" />
<glyph unicode="&#xe904;" glyph-name="back" horiz-adv-x="623" d="M4.282 448.562c-0.687 10.565 3.006 21.348 11.071 29.413l467.795 467.795c14.885 14.885 39.045 14.855 53.964-0.064l71.898-71.898c14.94-14.94 14.948-39.080 0.064-53.964l-371.282-371.282 371.282-371.282c14.884-14.884 14.876-39.024-0.064-53.964l-71.898-71.898c-14.92-14.92-39.079-14.95-53.964-0.064l-467.795 467.795c-8.065 8.065-11.758 18.849-11.071 29.413z" />
<glyph unicode="&#xe905;" glyph-name="change" horiz-adv-x="907" d="M576.678 846.512l70.893 87.546c17.36 21.438 48.764 24.68 70.205 7.318l168.215-136.218c21.435-17.358 24.77-48.788 7.438-70.192l-70.893-87.546-245.858 199.092zM500.333 752.235l-399.561-493.416c-17.333-21.404-13.997-52.834 7.438-70.192l168.215-136.218c21.44-17.362 52.845-14.12 70.205 7.318l399.561 493.416-245.858 199.092zM11.551-54.773c-30.059 37.627 81.075 296.559 81.075 296.559l239.475-193.923c0 0-290.491-140.263-320.55-102.636z" />
<glyph unicode="&#xe906;" glyph-name="day" horiz-adv-x="1030" d="M832.164 448c0-176.731-143.269-320-320-320s-320 143.269-320 320c0 176.731 143.269 320 320 320s320-143.269 320-320zM570.346 901.818c0-32.133-26.049-58.182-58.182-58.182s-58.182 26.049-58.182 58.182c0 32.133 26.049 58.182 58.182 58.182s58.182-26.049 58.182-58.182zM570.346-5.818c0-32.133-26.049-58.182-58.182-58.182s-58.182 26.049-58.182 58.182c0 32.133 26.049 58.182 58.182 58.182s58.182-26.049 58.182-58.182zM0.164 448c0 32.133 26.049 58.182 58.182 58.182s58.182-26.049 58.182-58.182c0-32.133-26.049-58.182-58.182-58.182s-58.182 26.049-58.182 58.182zM907.8 448c0 32.133 26.049 58.182 58.182 58.182s58.182-26.049 58.182-58.182c0-32.133-26.049-58.182-58.182-58.182s-58.182 26.049-58.182 58.182zM874.203 727.757c-22.721-22.721-59.56-22.721-82.282 0s-22.721 59.56 0 82.282c22.721 22.721 59.56 22.721 82.282 0s22.721-59.56 0-82.282zM232.407 85.961c-22.721-22.721-59.56-22.721-82.282 0s-22.721 59.56 0 82.282c22.721 22.721 59.56 22.721 82.282 0s22.721-59.56 0-82.282zM150.125 810.039c22.721 22.721 59.56 22.721 82.282 0s22.721-59.56 0-82.282c-22.721-22.721-59.56-22.721-82.282 0s-22.721 59.56 0 82.282zM791.921 168.243c22.721 22.721 59.56 22.721 82.282 0s22.721-59.56 0-82.282c-22.721-22.721-59.56-22.721-82.282 0s-22.721 59.56 0 82.282z" />
<glyph unicode="&#xe907;" glyph-name="done" horiz-adv-x="857" d="M702.44 201.29l96.757-115.31c8.763-10.443 5.072-21.231-8.226-24.115l-99.285-21.537-37.516-93.070c-5.088-12.622-16.334-14.457-25.089-4.023l-132.071 157.396c-1.735 2.067-3.073 4.334-4.023 6.708-20.963-3.151-42.422-4.784-64.263-4.784-25.392 0-50.268 2.207-74.447 6.441-0.959-2.732-2.42-5.341-4.393-7.693l-132.071-157.396c-8.755-10.434-20.001-8.599-25.089 4.023l-37.516 93.070-99.285 21.537c-13.298 2.885-16.989 13.672-8.226 24.115l100.813 120.144c-90.953 78.615-148.507 194.827-148.507 324.482 0 236.777 191.946 428.723 428.723 428.723s428.723-191.946 428.723-428.723c0-132.716-60.304-251.347-155.005-329.987zM431.807 225.928c166.936 0 302.265 135.329 302.265 302.265s-135.329 302.265-302.265 302.265c-166.936 0-302.265-135.329-302.265-302.265s135.329-302.265 302.265-302.265zM422.448 412.695l-112.402-33.041-3.311 117.11-66.157 96.69 110.355 39.338 71.514 92.798 71.514-92.798 110.355-39.338-66.157-96.69-3.311-117.11-112.402 33.041z" />
<glyph unicode="&#xe908;" glyph-name="fans" horiz-adv-x="1229" d="M831.247 685.972c0-151.342-122.975-274.028-274.673-274.028s-274.673 122.687-274.673 274.028c0 151.342 122.975 274.028 274.673 274.028s274.673-122.687 274.673-274.028zM790.269 129.514c-32.865 23.559-54.269 62.028-54.269 105.483 0 71.688 58.251 129.803 130.108 129.803 50.351 0 94.022-28.534 115.652-70.278 21.63 41.744 65.301 70.278 115.652 70.278 71.857 0 130.108-58.115 130.108-129.803 0-36.746-15.305-69.926-39.903-93.541l0.581-0.134-168.655-168.655c-20-20-52.412-20.015-72.446 0.019l-156.827 156.827zM879.648-64h-879.234c11.391 296.639 256.034 533.634 556.159 533.634 81.369 0 158.659-17.42 228.329-48.726-82.751-15.21-145.396-86.836-145.396-172.9 0-51.251 22.215-97.382 57.662-129.528l182.48-182.48z" />
<glyph unicode="&#xe909;" glyph-name="home" d="M160 64c0-17.6 14.4-32 32-32h224v209.6c0 8 6.4 14.4 14.4 14.4h161.6c8 0 14.4-6.4 14.4-14.4v-209.6h224c17.6 0 32 14.4 32 32v384h-702.4v-384zM955.2 465.6l-435.2 387.2c-8 6.4-19.2 6.4-25.6 0l-435.2-387.2c-6.4-6.4-3.2-17.6 6.4-17.6h881.6c11.2 0 14.4 11.2 8 17.6z" />
<glyph unicode="&#xe90a;" glyph-name="income" horiz-adv-x="815" d="M43.13 738.765h733.235c20.946 0 37.926-16.98 37.926-37.926v-101.136c0-20.946-16.98-37.926-37.926-37.926h-733.235c-20.946 0-37.926 16.98-37.926 37.926v101.136c0 20.946 16.98 37.926 37.926 37.926zM68.414 397.432h682.667c20.946 0 37.926-16.98 37.926-37.926v-101.136c0-20.946-16.98-37.926-37.926-37.926h-682.667c-20.946 0-37.926 16.98-37.926 37.926v101.136c0 20.946 16.98 37.926 37.926 37.926zM314.933-26.074v670.025c0 20.946 16.98 37.926 37.926 37.926h101.136c20.946 0 37.926-16.98 37.926-37.926v-670.025c0-20.946-16.98-37.926-37.926-37.926h-101.136c-20.946 0-37.926 16.98-37.926 37.926zM674.314 926.392c30.203-17.438 40.54-56.077 23.096-86.29l-113.806-197.118c-17.447-30.219-56.047-40.597-86.278-23.143l-43.902 25.347c-30.203 17.438-40.54 56.077-23.096 86.29l113.806 197.118c17.447 30.219 56.047 40.597 86.278 23.143l43.902-25.347zM138.491 926.392c-30.203-17.438-40.54-56.077-23.096-86.29l113.806-197.118c17.447-30.219 56.047-40.597 86.278-23.143l43.902 25.347c30.203 17.438 40.54 56.077 23.096 86.29l-113.806 197.118c-17.447 30.219-56.047 40.597-86.278 23.143l-43.902-25.347z" />
<glyph unicode="&#xe90b;" glyph-name="level" horiz-adv-x="1078" d="M538.198 55.834l-332.625-119.547 10.91 353.287-216.483 279.403 339.367 98.796 198.831 292.228 198.831-292.228 339.367-98.796-216.483-279.403 10.91-353.287z" />
<glyph unicode="&#xe90c;" glyph-name="month" horiz-adv-x="1096" d="M0 887.892v-879.785c0-39.77 32.294-72.108 72.131-72.108h951.851c39.846 0 72.131 32.284 72.131 72.108v879.785c0 39.77-32.294 72.108-72.131 72.108h-951.851c-39.846 0-72.131-32.284-72.131-72.108zM0 621.070h1096.113v-144.225h-1096.113v144.225zM317.296 714.817c-39.827 0-72.113 32.286-72.113 72.113s32.286 72.113 72.113 72.113c39.827 0 72.113-32.286 72.113-72.113s-32.286-72.113-72.113-72.113zM778.817 714.817c-39.827 0-72.113 32.286-72.113 72.113s32.286 72.113 72.113 72.113c39.827 0 72.113-32.286 72.113-72.113s-32.286-72.113-72.113-72.113z" />
<glyph unicode="&#xe90d;" glyph-name="more" horiz-adv-x="623" d="M619.023 448.562c0.687 10.565-3.006 21.348-11.071 29.413l-467.795 467.795c-14.885 14.885-39.045 14.855-53.964-0.064l-71.898-71.898c-14.94-14.94-14.948-39.080-0.064-53.964l371.282-371.282-371.282-371.282c-14.884-14.884-14.876-39.024 0.064-53.964l71.898-71.898c14.92-14.92 39.079-14.95 53.964-0.064l467.795 467.795c8.065 8.065 11.758 18.849 11.071 29.413z" />
<glyph unicode="&#xe90e;" glyph-name="no" d="M192.915 938.9l809.985-809.985c20.334-20.334 20.334-53.301 0-73.635l-98.18-98.18c-20.334-20.334-53.301-20.334-73.635 0l-809.985 809.985c-20.334 20.334-20.334 53.301 0 73.635l98.18 98.18c20.334 20.334 53.301 20.334 73.635 0zM21.1 128.915l809.985 809.985c20.334 20.334 53.301 20.334 73.635 0l98.18-98.18c20.334-20.334 20.334-53.301 0-73.635l-809.985-809.985c-20.334-20.334-53.301-20.334-73.635 0l-98.18 98.18c-20.334 20.334-20.334 53.301 0 73.635z" />
<glyph unicode="&#xe90f;" glyph-name="not-done" horiz-adv-x="1829" d="M1698.933 959.778l-1694.34-303.239 125.134-720.317 1694.34 303.239-125.134 720.317zM513.727 579.208l111.027 19.577 182.608-188.385-37.722 213.932 112.077 19.762 68.188-386.713-112.077-19.762-181.542 186.941 37.443-212.349-111.815-19.716-68.188 386.713zM1006.396 618.875c28.795 41.343 74.427 67.521 136.896 78.536 64.044 11.293 116.436 2.716 157.176-25.732s66.598-73.797 77.575-136.051c7.969-45.196 6.936-83.592-3.099-115.19s-27.939-57.964-53.712-79.1c-25.773-21.136-60.007-35.468-102.703-42.996-43.396-7.652-80.536-7.038-111.421 1.841s-57.815 26.796-80.791 53.752c-22.976 26.956-38.448 63.031-46.418 108.227-11.132 63.134-2.301 115.371 26.494 156.714zM1135.387 402.269c17.444-14.513 38.59-19.579 63.437-15.197 25.548 4.505 43.848 16.344 54.901 35.519s12.765 50.393 5.137 93.654c-6.419 36.403-18.414 61.713-35.987 75.931s-38.87 19.121-63.893 14.709c-23.973-4.227-41.717-16.15-53.233-35.769s-13.801-49.125-6.855-88.517c6.884-39.041 19.048-65.817 36.492-80.33z" />
<glyph unicode="&#xe910;" glyph-name="own-account" horiz-adv-x="762" d="M702.567 960c32.849 0 59.479-26.689 59.479-59.527v-928.76c0-32.876-18.809-40.666-42.035-17.377l-343.884 344.827-334.619-344.271c-22.925-23.586-41.509-16.017-41.509 16.821v928.76c0 32.876 26.675 59.527 59.479 59.527h643.088z" />
<glyph unicode="&#xe911;" glyph-name="password" horiz-adv-x="890" d="M763.23 572.025h-127.205v82.741c0 105.327-85.427 190.749-190.807 190.749-105.403 0-190.807-85.401-190.807-190.749v-82.741h-127.205v69.962c0 175.634 142.34 318.013 318.012 318.013 175.633 0 318.012-142.439 318.012-318.013v-69.962zM0 495.7v-483.376c0-42.129 34.162-76.324 76.303-76.324h737.829c42.078 0 76.303 34.172 76.303 76.324v483.376c0 42.129-34.162 76.324-76.303 76.324h-737.829c-42.078 0-76.303-34.172-76.303-76.324zM381.615 349.428c0 35.12 28.468 63.59 63.602 63.59 35.127 0 63.602-28.501 63.602-63.59v-190.832c0-35.12-28.468-63.59-63.602-63.59-35.127 0-63.602 28.501-63.602 63.59v190.832z" />
<glyph unicode="&#xe912;" glyph-name="phone" horiz-adv-x="751" d="M687.628 960h-628.473c-32.059 0-58.127-26.045-58.127-58.174v-907.652c0-32.092 26.024-58.174 58.127-58.174h628.473c32.059 0 58.127 26.045 58.127 58.174v907.652c0 32.092-26.024 58.174-58.127 58.174zM523.681 791.273c32.108 0 58.137-26.035 58.137-58.182v-465.454c0-32.133-26.046-58.182-58.137-58.182h-302.634c-32.108 0-58.137 26.035-58.137 58.182v465.454c0 32.133 26.046 58.182 58.137 58.182h302.634zM373.391-10.568c-44.986 0-81.455 36.468-81.455 81.455s36.468 81.455 81.455 81.455c44.986 0 81.455-36.468 81.455-81.455s-36.468-81.455-81.455-81.455z" />
<glyph unicode="&#xe913;" glyph-name="pin" horiz-adv-x="887" d="M372.543 343.933l-108.795 108.795c-14.623 14.623-38.348 14.624-52.98-0.008l-30.204-30.204c-14.663-14.663-14.636-38.353-0.008-52.98l164.806-164.806c13.013-13.013 33.236-14.447 47.843-4.291 3.731 1.785 7.229 4.224 10.323 7.318l342.473 342.473c14.626 14.626 14.597 38.369-0.020 52.986l-30.575 30.575c-14.637 14.637-38.337 14.668-52.986 0.020l-289.877-289.877zM449.886 960c195.975-224.266 436.924-256 436.924-256l-90.734-512c0 0-60.886-159.127-352.671-256 0 0-233.266 55.456-352.671 256l-90.734 512c0 0 262.582 31.734 449.886 256z" />
<glyph unicode="&#xe914;" glyph-name="prompt" horiz-adv-x="202" d="M12.642 302.617v619.457c0 20.946 16.98 37.926 37.926 37.926h101.136c20.946 0 37.926-16.98 37.926-37.926v-619.457c0-20.946-16.98-37.926-37.926-37.926h-101.136c-20.946 0-37.926 16.98-37.926 37.926zM202.272 37.136c0-55.856-45.28-101.136-101.136-101.136s-101.136 45.28-101.136 101.136c0 55.856 45.28 101.136 101.136 101.136s101.136-45.28 101.136-101.136z" />
<glyph unicode="&#xe915;" glyph-name="refresh" d="M249.6 635.2c-4.8-8-9.6-14.4-14.4-22.4l32-32-17.6 54.4zM163.2 683.2l3.2-3.2c1.6 3.2 3.2 4.8 4.8 8l-8-4.8zM512 126.4c-177.6 0-321.6 144-321.6 321.6 0 27.2 3.2 52.8 9.6 78.4 8 30.4 19.2 59.2 35.2 84.8l-68.8 68.8c-24-35.2-43.2-75.2-54.4-116.8-11.2-36.8-16-75.2-16-115.2 0-230.4 187.2-416 416-416 86.4 0 166.4 25.6 232 70.4l-68.8 68.8c-48-28.8-104-44.8-163.2-44.8zM512 864c-86.4 0-166.4-25.6-232-70.4l68.8-68.8c48 28.8 104 44.8 163.2 44.8 177.6 0 321.6-144 321.6-321.6 0-30.4-4.8-59.2-12.8-86.4 0-1.6-1.6-3.2-1.6-4.8-8-25.6-17.6-49.6-32-70.4l68.8-68.8c20.8 32 38.4 67.2 51.2 104 0 1.6 1.6 3.2 1.6 4.8 12.8 38.4 19.2 80 19.2 123.2 0 228.8-185.6 414.4-416 414.4zM862.4 196.8l9.6 4.8-14.4 14.4c-8-12.8-17.6-24-25.6-35.2l30.4 16zM780.8 272c3.2 3.2 4.8 8 8 11.2l-16 16 8-27.2zM267.2 579.2l-17.6 56-25.6 80-52.8-27.2-8-4.8-152-78.4 100.8-41.6 184-76.8zM908.8 318.4l-12.8 6.4-76.8 30.4-12.8 6.4-78.4 32 24-72 6.4-20.8 8-28.8 4.8-14.4 28.8-92.8 4.8 1.6 27.2 14.4 30.4 16 9.6 4.8 140.8 73.6z" />
<glyph unicode="&#xe916;" glyph-name="seach" d="M440 859.2c-195.2 0-355.2-158.4-355.2-355.2 0-195.2 158.4-355.2 355.2-355.2 195.2 0 355.2 158.4 355.2 355.2-1.6 196.8-160 355.2-355.2 355.2zM440 252.8c-139.2 0-252.8 113.6-252.8 252.8s113.6 252.8 252.8 252.8v0c139.2 0 252.8-113.6 252.8-252.8s-113.6-252.8-252.8-252.8zM897.6 208l-190.4 201.6c-30.4-91.2-75.2-113.6-136-136l190.4-201.6c36.8-36.8 97.6-36.8 134.4 0 38.4 38.4 38.4 99.2 1.6 136z" />
<glyph unicode="&#xe917;" glyph-name="yes" horiz-adv-x="1441" d="M578.443 277.046l667.083 667.083c21.155 21.155 55.654 21.19 76.912-0.067l102.438-102.438c21.286-21.286 21.287-55.692 0.067-76.912l-807.427-807.427c-21.155-21.155-55.654-21.19-76.912 0.067l-102.438 102.438c-0.861 0.861-1.688 1.744-2.48 2.647-2.91 1.947-5.674 4.205-8.244 6.775l-410.157 410.157c-21.217 21.217-21.213 55.62 0.073 76.906l102.438 102.438c21.257 21.257 55.679 21.3 76.906 0.073l381.741-381.741z" />
<glyph unicode="&#xe95f;" glyph-name="box-remove" d="M832 896h-640l-192-192v-672c0-17.674 14.326-32 32-32h960c17.672 0 32 14.326 32 32v672l-192 192zM640 320v-192h-256v192h-192l320 256 320-256h-192zM154.51 768l64 64h586.976l64-64h-714.976z" />
</font>
</defs>
</svg>
